<?xml version="1.0" encoding="UTF-8" standalone="no"?>
<!-- Created with Inkscape (http://www.inkscape.org/) -->

<svg
   xmlns:dc="http://purl.org/dc/elements/1.1/"
   xmlns:cc="http://creativecommons.org/ns#"
   xmlns:rdf="http://www.w3.org/1999/02/22-rdf-syntax-ns#"
   xmlns:svg="http://www.w3.org/2000/svg"
   xmlns="http://www.w3.org/2000/svg"
   xmlns:xlink="http://www.w3.org/1999/xlink"
   xmlns:sodipodi="http://sodipodi.sourceforge.net/DTD/sodipodi-0.dtd"
   xmlns:inkscape="http://www.inkscape.org/namespaces/inkscape"
   id="svg4190"
   version="1.1"
   inkscape:version="0.91 r13725"
   width="500"
   height="80"
   viewBox="0 0 500 80"
   sodipodi:docname="appname.svg">
  <metadata
     id="metadata4196">
    <rdf:RDF>
      <cc:Work
         rdf:about="">
        <dc:format>image/svg+xml</dc:format>
        <dc:type
           rdf:resource="http://purl.org/dc/dcmitype/StillImage" />
        <dc:title></dc:title>
      </cc:Work>
    </rdf:RDF>
  </metadata>
  <defs
     id="defs4194">
    <linearGradient
       inkscape:collect="always"
       id="linearGradient4208">
      <stop
         style="stop-color:#fe215d;stop-opacity:1;"
         offset="0"
         id="stop4210" />
      <stop
         style="stop-color:#fd15d5;stop-opacity:1;"
         offset="1"
         id="stop4212" />
    </linearGradient>
    <linearGradient
       inkscape:collect="always"
       xlink:href="#linearGradient4208"
       id="linearGradient4214"
       x1="0"
       y1="40.000001"
       x2="500"
       y2="40.000001"
       gradientUnits="userSpaceOnUse" />
  </defs>
  <sodipodi:namedview
     pagecolor="#888888"
     bordercolor="#666666"
     borderopacity="1"
     objecttolerance="10"
     gridtolerance="10"
     guidetolerance="10"
     inkscape:pageopacity="1"
     inkscape:pageshadow="2"
     inkscape:window-width="1920"
     inkscape:window-height="1023"
     id="namedview4192"
     showgrid="false"
     inkscape:zoom="2.167876"
     inkscape:cx="227.52825"
     inkscape:cy="60.669725"
     inkscape:window-x="0"
     inkscape:window-y="0"
     inkscape:window-maximized="1"
     inkscape:current-layer="svg4190" />
  <path
     style="fill:url(#linearGradient4214);fill-opacity:1;stroke:none"
     d="m 0.058541,70.998652 0,-9.001348 14.557463,-0.211609 14.557465,-0.211612 -6.388593,-9.21296 -6.388593,-9.21295 -8.168871,0 -8.168871,0 0,-9.01694 0,-9.01695 11.283401,0.0489 11.2834,0.0489 13.277418,18.4514 13.277419,18.451382 -4.505181,8.942558 -4.50518,8.942547 -20.055639,0 -20.055638,0 0,-9.001338 z m 53.465962,-18.049459 0,-27.05082 7.985176,0 7.985176,0 0,18.03388 0,18.033872 16.265932,0 16.265923,0 -4.54264,9.016939 L 92.94141,80 l -19.708452,0 -19.708455,0 0,-27.050807 z m 53.465947,0 0,-27.05082 7.98518,0 7.98518,0 0,18.03388 0,18.033872 8.33236,0 8.33235,0 0,-21.940092 0,-21.94009 -16.23353,-0.21022 -16.2335,-0.21019 4.48809,-8.8209303 4.48808,-8.82092 19.7306,0 19.73061,0 0,30.8732103 0,30.873214 -3.79279,9.114942 L 148.01029,80 l -20.50992,0 -20.50992,0 0,-27.050807 z m 54.16032,0 0,-27.05082 16.31755,0 16.31753,0 0,-3.90622 0,-3.90621 -16.23352,-0.21022 -16.23353,-0.21019 4.48811,-8.8209303 4.48808,-8.82092 19.73059,0 19.73062,0 0,12.9504103 0,12.95041 -3.81899,8.59876 c -2.10046,4.72933 -3.819,8.78108 -3.819,9.00389 0,0.2228 1.71854,0.4051 3.819,0.4051 l 3.81899,0 0,18.033872 0,18.033875 -7.98518,0 -7.98517,0 0,-18.033875 0,-18.033872 -8.33237,0 -8.33235,0 0,18.033872 0,18.033875 -7.98517,0 -7.98519,0 0,-27.050817 z m 53.46598,-0.39205 0,-27.44286 24.64988,0 24.64989,0 0,9.01695 0,9.01694 -16.66471,0 -16.66471,0 0,9.40897 0,9.408982 16.66471,0 16.66471,0 0,9.016939 0,9.016936 -24.64989,0 -24.64988,0 0,-27.442857 z m 54.16032,-12.54531 0,-39.9881503 7.98518,0 7.98517,0 0,30.9712203 0,30.971222 15.97035,0 c 8.78369,0 15.97036,0.219372 15.97036,0.487485 0,0.268125 -1.93854,4.325747 -4.30786,9.016939 L 308.07243,80 l -19.64768,0 -19.64768,0 0,-39.988167 z m 53.46597,0 0,-39.9881503 7.98516,0 7.98518,0 0,39.9881503 0,39.988167 -7.98518,0 -7.98516,0 0,-39.988167 z m 21.52525,30.986819 0,-9.001348 14.55746,-0.211609 14.55747,-0.211622 -6.3886,-9.21295 -6.3886,-9.21295 -8.16886,0 -8.16887,0 0,-9.01694 0,-9.01695 11.2834,0.0489 11.2834,0.0489 13.27741,18.4514 13.27742,18.451382 -4.50518,8.942558 -4.50517,8.942547 -20.05565,0 -20.05563,0 0,-9.001348 z m 70.13067,-21.945749 0,-30.94707 -8.25468,-0.22015 -8.2547,-0.22015 4.34078,-8.6249203 4.34078,-8.62489 20.23144,-0.20787 20.23145,-0.20785 0,9.02878 0,9.0287703 -8.33236,0 -8.33236,0 0,30.97122 0,30.971227 -7.98517,0 -7.98518,0 0,-30.947097 z m 37.49562,3.89628 0,-27.05081 7.98516,0 7.98518,0 0,18.03388 0,18.033872 8.33236,0 8.33235,0 0,-21.940092 0,-21.94009 -16.2335,-0.21022 -16.23353,-0.21019 4.48809,-8.8209303 4.48809,-8.82092 19.73061,0 19.73061,0 0,30.8732103 0,30.873214 -3.79281,9.114942 L 492.41441,80 l -20.50993,0 -20.5099,0 0,-27.050817 z M 1.681255,14.725213 c 0.92469,-1.83279 2.982657,-5.8904003 4.573258,-9.0169403 l 2.892005,-5.68459 20.105903,0 20.105902,0 0,9.01693 0,9.0169403 -24.679161,0 -24.679162,0 1.681255,-3.33234 z m 53.465962,0 c 0.92469,-1.83279 2.982656,-5.8904003 4.573259,-9.0169403 l 2.892003,-5.68459 19.758721,0 19.75872,0 0,9.01693 0,9.0169403 -24.331976,0 -24.331983,0 1.681256,-3.33234 z m 161.092243,0 c 0.92468,-1.83279 2.98266,-5.8904003 4.57326,-9.0169403 l 2.892,-5.68459 20.1059,0 20.1059,0 0,9.01693 0,9.0169403 -24.67915,0 -24.67917,0 1.68126,-3.33234 z m 129.15154,0 c 0.92469,-1.83279 2.98266,-5.8904003 4.57327,-9.0169403 l 2.89199,-5.68459 20.10591,0 20.1059,0 0,9.01693 0,9.0169403 -24.67916,0 -24.67917,0 1.68126,-3.33234 z"
     id="path4200"
     inkscape:connector-curvature="0" />
</svg>
    