<?xml version="1.0" encoding="UTF-8" standalone="no"?>
<!-- Created with Inkscape (http://www.inkscape.org/) -->

<svg
   xmlns:osb="http://www.openswatchbook.org/uri/2009/osb"
   xmlns:dc="http://purl.org/dc/elements/1.1/"
   xmlns:cc="http://creativecommons.org/ns#"
   xmlns:rdf="http://www.w3.org/1999/02/22-rdf-syntax-ns#"
   xmlns:svg="http://www.w3.org/2000/svg"
   xmlns="http://www.w3.org/2000/svg"
   xmlns:xlink="http://www.w3.org/1999/xlink"
   xmlns:sodipodi="http://sodipodi.sourceforge.net/DTD/sodipodi-0.dtd"
   xmlns:inkscape="http://www.inkscape.org/namespaces/inkscape"
   id="svg3527"
   version="1.1"
   inkscape:version="0.91 r13725"
   width="512"
   height="512"
   viewBox="0 0 512 512"
   sodipodi:docname="favicon.svg">
  <metadata
     id="metadata3533">
    <rdf:RDF>
      <cc:Work
         rdf:about="">
        <dc:format>image/svg+xml</dc:format>
        <dc:type
           rdf:resource="http://purl.org/dc/dcmitype/StillImage" />
        <dc:title />
      </cc:Work>
    </rdf:RDF>
  </metadata>
  <defs
     id="defs3531">
    <linearGradient
       inkscape:collect="always"
       id="linearGradient6659">
      <stop
         style="stop-color:#fe215d;stop-opacity:1"
         offset="0"
         id="stop6661" />
      <stop
         style="stop-color:#fd15d5;stop-opacity:1"
         offset="1"
         id="stop6663" />
    </linearGradient>
    <linearGradient
       id="linearGradient6552"
       osb:paint="solid">
      <stop
         style="stop-color:#000000;stop-opacity:1;"
         offset="0"
         id="stop6554" />
    </linearGradient>
    <inkscape:perspective
       sodipodi:type="inkscape:persp3d"
       inkscape:vp_x="0 : 256 : 1"
       inkscape:vp_y="0 : 1000 : 0"
       inkscape:vp_z="512 : 256 : 1"
       inkscape:persp3d-origin="256 : 170.66667 : 1"
       id="perspective5066" />
    <linearGradient
       inkscape:collect="always"
       xlink:href="#linearGradient6659"
       id="linearGradient6669"
       x1="502.34714"
       y1="150.26886"
       x2="8.5668478"
       y2="272.01358"
       gradientUnits="userSpaceOnUse"
       gradientTransform="matrix(1.0021384,0,0,1.0021384,-0.01283011,-1.082006)" />
  </defs>
  <sodipodi:namedview
     pagecolor="#ffffff"
     bordercolor="#666666"
     borderopacity="1"
     objecttolerance="10"
     gridtolerance="10"
     guidetolerance="10"
     inkscape:pageopacity="0"
     inkscape:pageshadow="2"
     inkscape:window-width="1920"
     inkscape:window-height="1023"
     id="namedview3529"
     showgrid="false"
     inkscape:zoom="1"
     inkscape:cx="49.47412"
     inkscape:cy="253.30339"
     inkscape:window-x="0"
     inkscape:window-y="0"
     inkscape:window-maximized="1"
     inkscape:current-layer="layer3" />
  <g
     inkscape:groupmode="layer"
     id="layer3"
     inkscape:label="Contour">
    <rect
       style="opacity:1;fill:url(#linearGradient6669);fill-opacity:1;stroke:none;stroke-width:5;stroke-miterlimit:4;stroke-dasharray:none;stroke-opacity:1"
       id="rect6562"
       width="500"
       height="500"
       x="6"
       y="6"
       ry="98" />
  </g>
  <path
     style="fill:#ffffff;fill-opacity:1;stroke:none;stroke-opacity:1"
     d="m 230.50303,66.004115 c -1.25423,-0.03682 -2.53632,0.172798 -3.73999,0.656756 -3.85067,1.548963 -5.42872,5.328503 -3.52017,8.442601 l 12.94727,21.125057 c 3.83927,6.264411 4.43169,13.364521 1.67016,19.994911 -2.76146,6.63037 -8.54627,11.99612 -16.29045,15.10987 l -93.90551,37.75733 c -11.46827,4.61126 -20.03709,12.55997 -24.12734,22.38054 -4.090197,9.82058 -3.21251,20.33694 2.47241,29.61407 l 0.35686,0.58248 c 9.60259,15.66678 30.62483,23.75598 50.91833,20.97422 l 10.57764,50.81571 15.58812,74.88108 -3.76569,-2.32532 c -8.58143,-5.2971 -17.31933,-7.9798 -26.81099,-8.23143 -4.7061,-0.12475 -12.48866,1.08061 -16.94994,2.62469 -30.28346,10.48135 -38.848069,45.46413 -17.027,69.55743 3.60541,3.98089 13.50996,10.6027 18.76569,12.54553 6.50739,2.40557 12.99864,3.4998 20.71847,3.4903 3.14618,-0.004 12.08497,-1.91254 15.53101,-3.31622 15.93553,-6.49116 25.40353,-18.65769 27.36486,-35.1628 l 0.53958,-4.53922 -13.90368,-66.91653 -18.36029,-86.65149 146.45114,-29.74636 c 2.09544,10.18538 7.86221,38.72966 10.91173,53.9347 l 9.9838,47.54356 -4.61078,-2.8289 c -10.55831,-6.47868 -21.74623,-8.82334 -33.9912,-7.12445 -9.0632,1.25743 -16.26501,4.30313 -23.50779,9.94406 -4.19194,3.26484 -10.377,11.99805 -12.29063,17.35166 -7.82113,21.8806 3.75916,46.05864 26.86524,56.09291 22.51594,9.77805 49.44716,1.54526 60.41676,-18.47019 2.99689,-5.46827 4.12841,-9.37807 4.96479,-17.18225 l 0.38544,-3.60633 -19.47375,-93.51604 -22.02318,-100.24831 C 210.89529,198.25207 209.92518,198.02711 152.277,218.57892 l 2.42383,11.64048 c -13.70339,1.88095 -27.90227,-3.57929 -34.3852,-14.1561 l -0.354,-0.58248 c -3.84185,-6.26862 -4.43737,-13.36918 -1.67588,-19.99952 2.76148,-6.63044 8.54917,-11.99609 16.29331,-15.1099 l 93.90552,-37.75731 c 11.46831,-4.61124 20.03711,-12.55995 24.12732,-22.38053 4.09025,-9.82058 3.21097,-20.337421 -2.47525,-29.614091 L 237.19221,69.496733 c -1.31164,-2.14207 -3.92981,-3.411535 -6.68918,-3.492618 z m 131.92801,77.494155 c -3.36909,-0.0219 -6.80173,0.21956 -10.26077,0.74263 -0.76167,0.11512 -1.51567,0.24298 -2.264,0.38289 -0.25829,0.0483 -0.51183,0.1041 -0.76797,0.15548 -0.486,0.0969 -0.97095,0.19442 -1.45032,0.30169 -0.30721,0.0693 -0.61075,0.14507 -0.91644,0.21816 -0.41859,0.10042 -0.83643,0.20076 -1.25048,0.30866 -0.33115,0.0861 -0.65786,0.17561 -0.98499,0.26687 -0.37826,0.10526 -0.75366,0.21345 -1.12768,0.32489 -0.34537,0.10313 -0.68876,0.20895 -1.03064,0.31793 -0.34138,0.10824 -0.68195,0.21851 -1.01924,0.33185 -0.36081,0.12143 -0.72039,0.24427 -1.07631,0.37132 -0.30345,0.10871 -0.60254,0.22141 -0.90215,0.33416 -0.37934,0.14309 -0.75988,0.28723 -1.13344,0.43629 -0.24758,0.0993 -0.4911,0.20172 -0.73658,0.304 -0.41545,0.17202 -0.83059,0.34378 -1.23907,0.52448 -0.12477,0.0555 -0.24586,0.1156 -0.37112,0.17173 -2.26993,1.02405 -4.43137,2.17014 -6.46078,3.42993 -0.0382,0.024 -0.0769,0.0463 -0.11424,0.0695 -0.48862,0.30428 -0.96844,0.61786 -1.44174,0.93523 -0.0619,0.0408 -0.12177,0.0818 -0.18272,0.12299 -0.46494,0.31498 -0.92258,0.63655 -1.37324,0.96309 -0.0607,0.0435 -0.12053,0.0868 -0.17986,0.12995 -0.45523,0.33294 -0.90173,0.67151 -1.34183,1.01647 -0.0401,0.0317 -0.0792,0.0636 -0.11991,0.0952 -0.45746,0.36128 -0.90741,0.7288 -1.34757,1.10232 -0.87063,0.73934 -1.71419,1.4963 -2.51234,2.28122 l 12.03367,57.58978 c 1.0672,0.50296 2.16455,0.96716 3.2832,1.404 0.56553,0.22322 1.13835,0.43689 1.71586,0.64283 0.0478,0.0165 0.0976,0.0345 0.14557,0.0512 0.55544,0.19618 1.11686,0.38342 1.68158,0.56393 0.0692,0.0219 0.13857,0.0437 0.20844,0.065 0.55863,0.17619 1.1221,0.34542 1.69013,0.50587 0.0694,0.0193 0.13928,0.036 0.2084,0.056 0.57685,0.16034 1.15562,0.31587 1.74152,0.45946 0.0401,0.0106 0.083,0.0182 0.12277,0.0277 2.42565,0.59029 4.92601,1.03608 7.48289,1.33207 0.13301,0.0142 0.26665,0.0334 0.3997,0.0486 0.46057,0.051 0.92607,0.0899 1.39037,0.12996 0.26649,0.0232 0.53209,0.0502 0.79936,0.0695 0.41561,0.031 0.83277,0.0534 1.2505,0.0764 0.3232,0.0181 0.64543,0.0362 0.97069,0.0488 0.38783,0.0155 0.77827,0.0264 1.16768,0.0349 0.36109,0.008 0.72208,0.012 1.08489,0.014 0.36507,0.002 0.7317,1.3e-4 1.09914,-0.006 0.39481,-0.005 0.79134,-0.0136 1.18768,-0.0256 0.3446,-0.0106 0.69062,-0.0207 1.03637,-0.0369 0.43091,-0.0199 0.86332,-0.0479 1.29613,-0.0767 0.31716,-0.0217 0.63363,-0.0393 0.95072,-0.065 0.49206,-0.0393 0.98759,-0.0903 1.48171,-0.14155 0.26181,-0.0276 0.52323,-0.0508 0.7851,-0.0813 0.75827,-0.0886 1.51666,-0.18642 2.27828,-0.30167 27.67112,-4.18359 46.48743,-24.87482 42.02796,-46.21616 -0.55749,-2.6678 -1.45054,-5.2205 -2.64371,-7.63501 -0.89428,-1.8108 -1.95813,-3.54603 -3.17185,-5.19365 -1.21318,-1.64824 -2.57968,-3.21079 -4.07976,-4.67847 -6.00036,-5.8707 -14.16018,-10.22752 -23.425,-12.50843 -2.31618,-0.57026 -4.69926,-1.00864 -7.13743,-1.31119 -2.43728,-0.30208 -4.93062,-0.46664 -7.45713,-0.48267 z"
     id="path3771"
     inkscape:connector-curvature="0" />
  <g
     id="g3697"
     transform="matrix(0,0.85377419,-0.8998903,0,291.17374,96.976102)" />
  <g
     id="g3699"
     transform="matrix(0,0.85377419,-0.8998903,0,291.17374,96.976102)" />
  <g
     id="g3701"
     transform="matrix(0,0.85377419,-0.8998903,0,291.17374,96.976102)" />
  <g
     id="g3703"
     transform="matrix(0,0.85377419,-0.8998903,0,291.17374,96.976102)" />
  <g
     id="g3705"
     transform="matrix(0,0.85377419,-0.8998903,0,291.17374,96.976102)" />
  <g
     id="g3707"
     transform="matrix(0,0.85377419,-0.8998903,0,291.17374,96.976102)" />
  <g
     id="g3709"
     transform="matrix(0,0.85377419,-0.8998903,0,291.17374,96.976102)" />
  <g
     id="g3711"
     transform="matrix(0,0.85377419,-0.8998903,0,291.17374,96.976102)" />
  <g
     id="g3713"
     transform="matrix(0,0.85377419,-0.8998903,0,291.17374,96.976102)" />
  <g
     id="g3715"
     transform="matrix(0,0.85377419,-0.8998903,0,291.17374,96.976102)" />
  <g
     id="g3717"
     transform="matrix(0,0.85377419,-0.8998903,0,291.17374,96.976102)" />
  <g
     id="g3719"
     transform="matrix(0,0.85377419,-0.8998903,0,291.17374,96.976102)" />
  <g
     id="g3721"
     transform="matrix(0,0.85377419,-0.8998903,0,291.17374,96.976102)" />
  <g
     id="g3723"
     transform="matrix(0,0.85377419,-0.8998903,0,291.17374,96.976102)" />
  <g
     id="g3725"
     transform="matrix(0,0.85377419,-0.8998903,0,291.17374,96.976102)" />
</svg>
    